<?xml version="1.0" encoding="UTF-8"?>
<!DOCTYPE svg PUBLIC "-//W3C//DTD SVG 1.1//EN" "http://www.w3.org/Graphics/SVG/1.1/DTD/svg11.dtd">
<!-- Creator: CorelDRAW X7 -->
<svg xmlns="http://www.w3.org/2000/svg" xml:space="preserve" width="1303.09mm" height="1303.09mm" version="1.1" style="shape-rendering:geometricPrecision; text-rendering:geometricPrecision; image-rendering:optimizeQuality; fill-rule:evenodd; clip-rule:evenodd"
viewBox="0 0 728941 728941"
 xmlns:xlink="http://www.w3.org/1999/xlink">
 <defs>
  <style type="text/css">
   <![CDATA[
    .fil0 {fill:none}
    .fil1 {fill:#2B2A29}
   ]]>
  </style>
 </defs>
 <g id="Layer_x0020_1">
  <metadata id="CorelCorpID_0Corel-Layer"/>
  <rect class="fil0" width="728941" height="728941"/>
  <path class="fil1" d="M482251 196326l-235585 0c-28855,0 -52248,23392 -52248,52226l0 81596 0 34297 0 117906c0,32141 26083,58224 58224,58224l223592 0c32182,0 58244,-26083 58244,-58224l0 -117906 0 -34297 0 -81596c0,-28834 -23372,-52226 -52227,-52226zm-117803 92562c-41650,0 -75578,33887 -75578,75557 0,41692 33908,75578 75578,75578 41691,0 75599,-33886 75599,-75578 0,-41670 -33908,-75557 -75599,-75557zm115708 75557l0 0c0,63810 -51898,115709 -115708,115709 -63789,0 -115729,-51899 -115729,-115709 0,-63809 51940,-115708 115729,-115708 63810,0 115729,51899 115729,115708l-21 0zm23516 -107041l0 0c0,2033 -822,3861 -2054,5340 -1540,1889 -3799,3142 -6449,3142l-14294 0 -8872 0c-4703,0 -8503,-3799 -8503,-8482l0 -9262 0 -13925c0,-4703 3800,-8502 8503,-8502l23166 0c2650,0 4909,1273 6449,3142 1232,1479 2054,3307 2054,5360l0 23187zm76563 242753l0 0c0,47585 -38590,86175 -86175,86175l-259203 0c-47586,0 -86176,-38590 -86176,-86175l0 -271403c0,-47585 38590,-86175 86155,-86175l259224 0c47585,0 86175,38590 86175,86175l0 271403z"/>
 </g>
</svg>
