<?xml version="1.0" encoding="UTF-8"?>
<!DOCTYPE svg PUBLIC "-//W3C//DTD SVG 1.1//EN" "http://www.w3.org/Graphics/SVG/1.1/DTD/svg11.dtd">
<!-- Creator: CorelDRAW X7 -->
<svg xmlns="http://www.w3.org/2000/svg" xml:space="preserve" width="1303.09mm" height="1303.09mm" version="1.1" style="shape-rendering:geometricPrecision; text-rendering:geometricPrecision; image-rendering:optimizeQuality; fill-rule:evenodd; clip-rule:evenodd"
viewBox="0 0 39609 39609"
 xmlns:xlink="http://www.w3.org/1999/xlink">
 <defs>
  <style type="text/css">
   <![CDATA[
    .fil0 {fill:none}
    .fil1 {fill:#2B2A29}
   ]]>
  </style>
 </defs>
 <g id="Layer_x0020_1">
  <metadata id="CorelCorpID_0Corel-Layer"/>
  <rect class="fil0" width="39609" height="39609"/>
  <g id="_2406319237280">
   <path class="fil1" d="M22990 25011c-852,853 -1990,1322 -3202,1322 -1174,0 -2307,-459 -3108,-1261l-10694 -10693 0 12152c0,1490 1214,2704 2704,2704l22230 0c1490,0 2703,-1214 2703,-2704l0 -12152 -10633 10632z"/>
   <path class="fil1" d="M29500 10374l-19391 0c-1221,0 -2227,933 -2348,2122l10430 10429c838,839 2342,886 3280,-52l10377 -10377c-120,-1189 -1127,-2122 -2348,-2122z"/>
  </g>
 </g>
</svg>
