<?xml version="1.0" encoding="UTF-8"?>
<!DOCTYPE svg PUBLIC "-//W3C//DTD SVG 1.1//EN" "http://www.w3.org/Graphics/SVG/1.1/DTD/svg11.dtd">
<!-- Creator: CorelDRAW X7 -->
<svg xmlns="http://www.w3.org/2000/svg" xml:space="preserve" width="1303.09mm" height="1303.09mm" version="1.1" style="shape-rendering:geometricPrecision; text-rendering:geometricPrecision; image-rendering:optimizeQuality; fill-rule:evenodd; clip-rule:evenodd"
viewBox="0 0 13699 13699"
 xmlns:xlink="http://www.w3.org/1999/xlink">
 <defs>
  <style type="text/css">
   <![CDATA[
    .fil0 {fill:none}
    .fil1 {fill:#2B2A29}
   ]]>
  </style>
 </defs>
 <g id="Layer_x0020_1">
  <metadata id="CorelCorpID_0Corel-Layer"/>
  <rect class="fil0" width="13699" height="13699"/>
  <path class="fil1" d="M6102 5521c358,-417 -31,-963 -272,-1336 -135,-216 -335,-522 -615,-561 -267,-29 -509,267 -685,430 -424,385 -659,887 -684,1459 3,65 3,172 -6,75 42,343 80,668 202,994 111,307 265,590 441,863 379,572 817,1126 1338,1585 507,450 1077,855 1754,1000 635,129 1254,-5 1754,-416 181,-148 515,-363 529,-620 14,-258 -192,-465 -368,-620 -378,-338 -933,-899 -1446,-489 -199,163 -411,467 -679,510 -265,43 -523,-149 -714,-302 -429,-350 -849,-826 -1103,-1323 -106,-222 -201,-506 -45,-726 160,-217 427,-319 599,-523z"/>
 </g>
</svg>
