<?xml version="1.0" encoding="UTF-8"?>
<!DOCTYPE svg PUBLIC "-//W3C//DTD SVG 1.1//EN" "http://www.w3.org/Graphics/SVG/1.1/DTD/svg11.dtd">
<!-- Creator: CorelDRAW X7 -->
<svg xmlns="http://www.w3.org/2000/svg" xml:space="preserve" width="1303.09mm" height="1303.09mm" version="1.1" style="shape-rendering:geometricPrecision; text-rendering:geometricPrecision; image-rendering:optimizeQuality; fill-rule:evenodd; clip-rule:evenodd"
viewBox="0 0 44438 44438"
 xmlns:xlink="http://www.w3.org/1999/xlink">
 <defs>
  <style type="text/css">
   <![CDATA[
    .fil0 {fill:none}
    .fil1 {fill:#2B2A29}
   ]]>
  </style>
 </defs>
 <g id="Layer_x0020_1">
  <metadata id="CorelCorpID_0Corel-Layer"/>
  <rect class="fil0" width="44438" height="44438"/>
  <path class="fil1" d="M26828 33424l0 0zm0 0c50,-191 76,-151 198,-327 89,-127 123,-200 200,-326 78,-129 119,-211 185,-340 78,-151 130,-210 215,-368 127,-235 210,-472 331,-720 128,-266 210,-530 330,-779 621,52 1768,636 2043,700l-759 642c-290,218 -523,350 -841,560l-1902 958zm-10681 -2977c70,300 541,1199 700,1518 117,237 256,476 397,712 147,245 294,449 420,688 -797,-185 -2042,-977 -2718,-1484 -252,-188 -648,-565 -842,-617 241,-329 1776,-689 2043,-817zm7004 3677l0 -4436c494,0 1142,69 1623,128 474,57 1100,223 1587,223 -25,294 -395,1052 -528,1281 -375,646 -962,1609 -1532,2087 -310,259 -720,617 -1150,717zm-5078 -4085l2368 -259c314,-45 566,-27 842,-92l0 4436c-709,-165 -1542,-1045 -1961,-1657 -143,-208 -221,-294 -356,-520 -278,-471 -827,-1393 -893,-1908zm8988 -1751c-434,-209 -3138,-467 -3910,-467l0 -4670 4669 0c-105,1259 -249,2687 -491,3887l-268 1250zm-10447 -5137l4669 0 0 4670c-868,0 -3291,169 -3911,467 -19,-229 -530,-2456 -637,-3741 -38,-462 -66,-961 -121,-1396zm15175 6596l-2153 -824c-200,-67 -577,-195 -766,-285 428,-1834 817,-3482 817,-5487l4670 0c-69,298 -82,642 -133,976 -143,930 -423,1836 -759,2685 -342,862 -722,1502 -1209,2234l-467 701zm-21712 -6596l4669 0c0,2005 390,3653 817,5487 -538,258 -1464,475 -2180,797 -205,92 -558,270 -738,312 -56,-210 -75,-143 -209,-317l-692 -1058c-271,-448 -558,-1011 -759,-1518 -361,-910 -614,-1671 -767,-2677 -34,-224 -88,-907 -141,-1026zm13074 -6537c867,0 3290,-169 3910,-466 17,205 80,367 129,571 344,1439 504,3059 630,4565l-4669 0 0 -4670zm-5779 -466c456,218 3110,466 3911,466l0 4670 -4669 0c104,-1259 248,-2687 491,-3887 46,-229 75,-404 127,-631 52,-227 122,-401 140,-618zm-2626 5136l-4669 0c126,-543 185,-1202 361,-1915 721,-2927 2150,-4467 2207,-4681l1351 517c469,174 944,358 1450,476 0,391 -169,949 -234,1342 -225,1366 -466,2871 -466,4261zm14124 -5487c179,-86 505,-196 722,-270l1458 -527c205,-92 558,-270 739,-312l901 1376c732,1212 1289,2769 1526,4193 59,353 68,712 141,1027l-4670 0c0,-1417 -308,-3456 -653,-4833 -31,-123 -116,-547 -164,-654zm-5719 -1050l0 -4436c1401,326 3143,3288 3210,4086l-3210 350zm-1868 -4436l0 4436c-1284,0 -2615,-350 -3210,-350 24,-294 394,-1052 528,-1282 554,-956 1539,-2538 2682,-2804zm5486 759c797,185 2042,977 2718,1484 252,188 649,565 843,617 -242,329 -1777,689 -2043,817 -172,-737 -1177,-2274 -1518,-2918zm-9163 -59l-1459 2860c-301,-25 -1140,-306 -1504,-422 -160,-50 -280,-115 -481,-161 99,-372 1253,-1127 1551,-1309 175,-107 259,-178 433,-268 319,-163 1108,-618 1460,-700zm0 0l0 0zm-9397 10740c0,2476 325,4397 1323,6381 204,406 357,727 584,1108 832,1391 1496,2174 2630,3266 1390,1338 2940,2214 4726,2919 4024,1589 9518,761 12841,-1725l950 -743c443,-341 1677,-1649 2052,-2151 716,-959 1047,-1536 1607,-2654 352,-705 690,-1726 882,-2502 767,-3086 511,-6543 -883,-9308 -439,-872 -680,-1333 -1241,-2144 -856,-1239 -2163,-2506 -3367,-3404 -422,-315 -1055,-729 -1540,-969l-1136 -557c-736,-299 -1115,-434 -1930,-638 -2216,-556 -4769,-588 -6993,-13 -823,213 -1783,540 -2490,896 -783,395 -1466,742 -2137,1248 -173,130 -293,221 -467,350 -200,149 -287,239 -484,392l-2371 2648c-592,885 -798,1217 -1233,2152 -748,1607 -1323,3564 -1323,5448z"/>
 </g>
</svg>
